<svg xmlns="http://www.w3.org/2000/svg" xmlns:xlink="http://www.w3.org/1999/xlink" contentStyleType="text/css" data-diagram-type="DESCRIPTION" height="275px" preserveAspectRatio="none" style="width:1088px;height:275px;background:#FFFFFF;" version="1.1" viewBox="0 0 1088 275" width="1088px" zoomAndPan="magnify"><defs/><g><!--cluster Autenticaci?n--><g class="cluster" data-entity="Autenticaci.n" data-source-line="9" data-uid="ent0005" id="cluster_Autenticaci.n"><path d="M8.5,144.8 L118.376,144.8 A3.75,3.75 0 0 1 120.876,147.3 L127.876,167.0969 L1078.5,167.0969 A2.5,2.5 0 0 1 1081,169.5969 L1081,265.93 A2.5,2.5 0 0 1 1078.5,268.43 L8.5,268.43 A2.5,2.5 0 0 1 6,265.93 L6,147.3 A2.5,2.5 0 0 1 8.5,144.8" fill="none" style="stroke:#000000;stroke-width:1.5;"/><line style="stroke:#000000;stroke-width:1.5;" x1="6" x2="127.876" y1="167.0969" y2="167.0969"/><text fill="#000000" font-family="sans-serif" font-size="14" font-weight="bold" lengthAdjust="spacing" textLength="108.876" x="10" y="159.7951">Autenticaci&#243;n</text></g><!--entity CU01--><g class="entity" data-entity="CU01" data-source-line="10" data-uid="ent0006" id="entity_CU01"><ellipse cx="141.0046" cy="225.6129" fill="#F1F1F1" rx="118.5646" ry="26.1129" style="stroke:#181818;stroke-width:0.5;"/><text fill="#000000" font-family="sans-serif" font-size="14" lengthAdjust="spacing" textLength="216.2891" x="32.86" y="230.2613">CU01: Crear cuenta de usuario</text></g><!--entity CU02--><g class="entity" data-entity="CU02" data-source-line="11" data-uid="ent0007" id="entity_CU02"><ellipse cx="982.004" cy="225.6148" fill="#F1F1F1" rx="83.474" ry="19.0948" style="stroke:#181818;stroke-width:0.5;"/><text fill="#000000" font-family="sans-serif" font-size="14" lengthAdjust="spacing" textLength="138.7969" x="912.6056" y="230.2632">CU02: Iniciar sesi&#243;n</text></g><!--entity CU03--><g class="entity" data-entity="CU03" data-source-line="12" data-uid="ent0008" id="entity_CU03"><ellipse cx="750.9956" cy="225.6071" fill="#F1F1F1" rx="112.0356" ry="24.8071" style="stroke:#181818;stroke-width:0.5;"/><text fill="#000000" font-family="sans-serif" font-size="14" lengthAdjust="spacing" textLength="202.2754" x="649.8579" y="230.2556">CU03: Recuperar contrase&#241;a</text></g><!--entity CU04--><g class="entity" data-entity="CU04" data-source-line="13" data-uid="ent0009" id="entity_CU04"><ellipse cx="417.0039" cy="225.6068" fill="#F1F1F1" rx="122.0839" ry="26.8168" style="stroke:#181818;stroke-width:0.5;"/><text fill="#000000" font-family="sans-serif" font-size="14" lengthAdjust="spacing" textLength="223.7949" x="305.1064" y="230.2552">CU04: Validar correo de usuario</text></g><!--entity Administrador--><g class="entity" data-entity="Administrador" data-source-line="5" data-uid="ent0002" id="entity_Administrador"><ellipse cx="502" cy="14" fill="#F1F1F1" rx="8" ry="8" style="stroke:#181818;stroke-width:0.5;"/><path d="M502,22 L502,49 M489,30 L515,30 M502,49 L489,64 M502,49 L515,64" fill="none" style="stroke:#181818;stroke-width:0.5;"/><text fill="#000000" font-family="sans-serif" font-size="14" lengthAdjust="spacing" textLength="99.0801" x="452.46" y="78.4951">Administrador</text></g><!--entity RRHH--><g class="entity" data-entity="RRHH" data-source-line="6" data-uid="ent0003" id="entity_RRHH"><ellipse cx="660.0001" cy="14" fill="#F1F1F1" rx="8" ry="8" style="stroke:#181818;stroke-width:0.5;"/><path d="M660.0001,22 L660.0001,49 M647.0001,30 L673.0001,30 M660.0001,49 L647.0001,64 M660.0001,49 L673.0001,64" fill="none" style="stroke:#181818;stroke-width:0.5;"/><text fill="#000000" font-family="sans-serif" font-size="14" lengthAdjust="spacing" textLength="134.6201" x="592.69" y="78.4951">Recursos Humanos</text></g><!--entity Contador--><g class="entity" data-entity="Contador" data-source-line="7" data-uid="ent0004" id="entity_Contador"><ellipse cx="853.9951" cy="14" fill="#F1F1F1" rx="8" ry="8" style="stroke:#181818;stroke-width:0.5;"/><path d="M853.9951,22 L853.9951,49 M840.9951,30 L866.9951,30 M853.9951,49 L840.9951,64 M853.9951,49 L866.9951,64" fill="none" style="stroke:#181818;stroke-width:0.5;"/><text fill="#000000" font-family="sans-serif" font-size="14" lengthAdjust="spacing" textLength="64.4902" x="821.75" y="78.4951">Contador</text></g><!--link Administrador to CU01--><g class="link" data-entity-1="Administrador" data-entity-2="CU01" data-source-line="16" data-uid="lnk10" id="link_Administrador_CU01"><path d="M452.1,62.06 C405.7,78.95 335.19,106.43 277,136.8 C240.75,155.72 206.6934,178.0707 179.8034,196.8007" fill="none" id="Administrador-to-CU01" style="stroke:#181818;stroke-width:1;"/><polygon fill="#181818" points="174.88,200.23,184.5513,198.3682,178.9828,197.3722,179.9788,191.8037,174.88,200.23" style="stroke:#181818;stroke-width:1;"/></g><!--link Administrador to CU02--><g class="link" data-entity-1="Administrador" data-entity-2="CU02" data-source-line="17" data-uid="lnk11" id="link_Administrador_CU02"><path d="M551.77,71.31 C559.45,75.04 567.37,78.66 575,81.8 C638.44,107.88 654.52,116.53 722,128.8 C756.81,135.13 848.18,123.58 881,136.8 C917.64,151.56 946.3026,180.8443 964.0126,201.9443" fill="none" id="Administrador-to-CU02" style="stroke:#181818;stroke-width:1;"/><polygon fill="#181818" points="967.87,206.54,965.1478,197.0748,964.6555,202.7102,959.0201,202.218,967.87,206.54" style="stroke:#181818;stroke-width:1;"/></g><!--link Administrador to CU03--><g class="link" data-entity-1="Administrador" data-entity-2="CU03" data-source-line="18" data-uid="lnk12" id="link_Administrador_CU03"><path d="M511.82,82.12 C517.57,98.13 526.27,116.02 539,128.8 C545.18,135 549.01,133.21 557,136.8 C606.92,159.19 658.4972,182.5584 697.7472,200.3884" fill="none" id="Administrador-to-CU03" style="stroke:#181818;stroke-width:1;"/><polygon fill="#181818" points="703.21,202.87,696.6702,195.5058,698.6577,200.802,693.3615,202.7895,703.21,202.87" style="stroke:#181818;stroke-width:1;"/></g><!--link RRHH to CU02--><g class="link" data-entity-1="RRHH" data-entity-2="CU02" data-source-line="19" data-uid="lnk13" id="link_RRHH_CU02"><path d="M692.49,82.06 C709.99,99.51 733.08,118.63 758,128.8 C808.73,149.48 830.34,115.95 881,136.8 C917.53,151.83 946.2079,181.0367 963.9579,202.0467" fill="none" id="RRHH-to-CU02" style="stroke:#181818;stroke-width:1;"/><polygon fill="#181818" points="967.83,206.63,965.0773,197.1736,964.6032,202.8106,958.9663,202.3365,967.83,206.63" style="stroke:#181818;stroke-width:1;"/></g><!--link RRHH to CU03--><g class="link" data-entity-1="RRHH" data-entity-2="CU03" data-source-line="20" data-uid="lnk14" id="link_RRHH_CU03"><path d="M666.69,82.13 C670.15,97.08 675.12,114.18 682,128.8 C694.57,155.5 711.0032,177.8588 726.3232,196.3588" fill="none" id="RRHH-to-CU03" style="stroke:#181818;stroke-width:1;"/><polygon fill="#181818" points="730.15,200.98,727.4905,191.497,726.961,197.129,721.329,196.5995,730.15,200.98" style="stroke:#181818;stroke-width:1;"/></g><!--link Contador to CU02--><g class="link" data-entity-1="Contador" data-entity-2="CU02" data-source-line="21" data-uid="lnk15" id="link_Contador_CU02"><path d="M880.52,81.94 C907.62,120.03 945.0734,172.6899 965.6834,201.6799" fill="none" id="Contador-to-CU02" style="stroke:#181818;stroke-width:1;"/><polygon fill="#181818" points="969.16,206.57,967.2052,196.9171,966.2629,202.4949,960.6851,201.5525,969.16,206.57" style="stroke:#181818;stroke-width:1;"/></g><!--link Contador to CU03--><g class="link" data-entity-1="Contador" data-entity-2="CU03" data-source-line="22" data-uid="lnk16" id="link_Contador_CU03"><path d="M847.98,81.99 C844.6,97.08 839.51,114.32 832,128.8 C817.65,156.44 798.2885,178.8433 780.2585,196.9933" fill="none" id="Contador-to-CU03" style="stroke:#181818;stroke-width:1;"/><polygon fill="#181818" points="776.03,201.25,785.2106,197.684,779.5538,197.7028,779.535,192.0459,776.03,201.25" style="stroke:#181818;stroke-width:1;"/></g><!--link Administrador to CU04--><g class="link" data-entity-1="Administrador" data-entity-2="CU04" data-source-line="23" data-uid="lnk17" id="link_Administrador_CU04"><path d="M484.39,81.94 C467.9,116.84 446.2722,162.6446 431.8022,193.2846" fill="none" id="Administrador-to-CU04" style="stroke:#181818;stroke-width:1;"/><polygon fill="#181818" points="429.24,198.71,436.7002,192.28,431.3752,194.1888,429.4664,188.8637,429.24,198.71" style="stroke:#181818;stroke-width:1;"/></g><!--link RRHH to CU04--><g class="link" data-entity-1="RRHH" data-entity-2="CU04" data-source-line="24" data-uid="lnk18" id="link_RRHH_CU04"><path d="M609.36,82.16 C561.78,117.39 496.7616,165.5389 455.6216,196.0089" fill="none" id="RRHH-to-CU04" style="stroke:#181818;stroke-width:1;"/><polygon fill="#181818" points="450.8,199.58,460.4131,197.4378,454.818,196.6041,455.6517,191.009,450.8,199.58" style="stroke:#181818;stroke-width:1;"/></g><!--link Contador to CU04--><g class="link" data-entity-1="Contador" data-entity-2="CU04" data-source-line="25" data-uid="lnk19" id="link_Contador_CU04"><path d="M821.46,57.16 C776.31,74.61 692.17,107.41 621,136.8 C569.68,157.99 517.0479,180.7173 475.9979,198.6573" fill="none" id="Contador-to-CU04" style="stroke:#181818;stroke-width:1;"/><polygon fill="#181818" points="470.5,201.06,480.3487,201.1212,475.0816,199.0577,477.145,193.7906,470.5,201.06" style="stroke:#181818;stroke-width:1;"/></g><!--link CU02 to CU04--><g class="link" data-entity-1="CU02" data-entity-2="CU04" data-source-line="27" data-uid="lnk20" id="link_CU02_CU04"><path d="M967.36,206.39 C949.63,184.84 917.55,151.04 881,136.8 C827.17,115.81 677.52,124.8 621,136.8 C563,149.11 506.4931,175.7459 466.3131,197.3759" fill="none" id="CU02-to-CU04" style="stroke:#181818;stroke-width:1;stroke-dasharray:7,7;"/><polygon fill="#181818" points="461.03,200.22,470.8507,199.476,465.4326,197.85,467.0586,192.4318,461.03,200.22" style="stroke:#181818;stroke-width:1;"/><text fill="#000000" font-family="sans-serif" font-size="13" lengthAdjust="spacing" textLength="63.0068" x="766.5" y="124.8669">&#171;include&#187;</text></g><!--link CU03 to CU04--><g class="link" data-entity-1="CU03" data-entity-2="CU04" data-source-line="28" data-uid="lnk21" id="link_CU03_CU04"><path d="M638.51,225.61 C606.67,225.61 577.87,225.61 545.47,225.61" fill="none" id="CU03-to-CU04" style="stroke:#181818;stroke-width:1;stroke-dasharray:7,7;"/><polygon fill="#181818" points="539.47,225.61,548.47,229.61,544.47,225.61,548.47,221.61,539.47,225.61" style="stroke:#181818;stroke-width:1;"/><text fill="#000000" font-family="sans-serif" font-size="13" lengthAdjust="spacing" textLength="63.0068" x="557.52" y="218.6769">&#171;include&#187;</text></g><!--SRC=[ZP11QiCm44NtEiNWJLOfhUMLI0t6ATYGfc3YG9U3B8fe8WN9MfMU8YSfFO8lLibEIEDuaTdD_sy-dvd1yvr3Pl3Q7PVrwer1LczUrfiop_AoEwxX7RRPgbmEc-VkZYJ8MsqWQ_PIITiQRBGvQL4bk3DMMoZS7fMs4Q25gYgA4v1hrVOyEI3_n0y1KUPQeLh9aSlkLqNmHG2S5HojD_FwyOb1RWGQuCvp28tmjaCZTHyUYD55pA1Kaaj_OuKTKWSo7f6KGMXy42Ra-sx6EzqFddawuXC6Mzp9fgUD4NgYJKA-2Rbw3ipdwT1pKewdPKh2toxG_usIyoCl_bYXqx79LL1oSvOG4kBWOTY0mM8X5T-vHgHfiEYqzGS0]--></g></svg>