<svg xmlns="http://www.w3.org/2000/svg" xmlns:xlink="http://www.w3.org/1999/xlink" contentStyleType="text/css" data-diagram-type="DESCRIPTION" height="306px" preserveAspectRatio="none" style="width:3851px;height:306px;background:#FFFFFF;" version="1.1" viewBox="0 0 3851 306" width="3851px" zoomAndPan="magnify"><defs/><g><!--cluster Gesti?n de Socios--><g class="cluster" data-entity="Gesti.n de Socios" data-source-line="7" data-uid="ent0003" id="cluster_Gesti.n de Socios"><path d="M8.5,162.88 L149.9102,162.88 A3.75,3.75 0 0 1 152.4102,165.38 L159.4102,185.1769 L665.5,185.1769 A2.5,2.5 0 0 1 668,187.6769 L668,278.48 A2.5,2.5 0 0 1 665.5,280.98 L8.5,280.98 A2.5,2.5 0 0 1 6,278.48 L6,165.38 A2.5,2.5 0 0 1 8.5,162.88" fill="none" style="stroke:#000000;stroke-width:1.5;"/><line style="stroke:#000000;stroke-width:1.5;" x1="6" x2="159.4102" y1="185.1769" y2="185.1769"/><text fill="#000000" font-family="sans-serif" font-size="14" font-weight="bold" lengthAdjust="spacing" textLength="140.4102" x="10" y="177.8751">Gesti&#243;n de Socios</text></g><!--cluster M?todos de Pago--><g class="cluster" data-entity="M.todos de Pago" data-source-line="13" data-uid="ent0007" id="cluster_M.todos de Pago"><path d="M694.5,160.1 L831.8223,160.1 A3.75,3.75 0 0 1 834.3223,162.6 L841.3223,182.3969 L1508.5,182.3969 A2.5,2.5 0 0 1 1511,184.8969 L1511,281.25 A2.5,2.5 0 0 1 1508.5,283.75 L694.5,283.75 A2.5,2.5 0 0 1 692,281.25 L692,162.6 A2.5,2.5 0 0 1 694.5,160.1" fill="none" style="stroke:#000000;stroke-width:1.5;"/><line style="stroke:#000000;stroke-width:1.5;" x1="692" x2="841.3223" y1="182.3969" y2="182.3969"/><text fill="#000000" font-family="sans-serif" font-size="14" font-weight="bold" lengthAdjust="spacing" textLength="136.3223" x="696" y="175.0951">M&#233;todos de Pago</text></g><!--cluster Datos de Empresa--><g class="cluster" data-entity="Datos de Empresa" data-source-line="19" data-uid="ent0011" id="cluster_Datos de Empresa"><path d="M1537.5,144.8 L1681.8291,144.8 A3.75,3.75 0 0 1 1684.3291,147.3 L1691.3291,167.0969 L3376.5,167.0969 A2.5,2.5 0 0 1 3379,169.5969 L3379,296.56 A2.5,2.5 0 0 1 3376.5,299.06 L1537.5,299.06 A2.5,2.5 0 0 1 1535,296.56 L1535,147.3 A2.5,2.5 0 0 1 1537.5,144.8" fill="none" style="stroke:#000000;stroke-width:1.5;"/><line style="stroke:#000000;stroke-width:1.5;" x1="1535" x2="1691.3291" y1="167.0969" y2="167.0969"/><text fill="#000000" font-family="sans-serif" font-size="14" font-weight="bold" lengthAdjust="spacing" textLength="143.3291" x="1539" y="159.7951">Datos de Empresa</text></g><!--entity CU08--><g class="entity" data-entity="CU08" data-source-line="8" data-uid="ent0004" id="entity_CU08"><ellipse cx="107.9995" cy="240.9339" fill="#F1F1F1" rx="85.5195" ry="19.5039" style="stroke:#181818;stroke-width:0.5;"/><text fill="#000000" font-family="sans-serif" font-size="14" lengthAdjust="spacing" textLength="143.5205" x="36.2392" y="245.5823">CU08: Agregar socio</text></g><!--entity CU09--><g class="entity" data-entity="CU09" data-source-line="9" data-uid="ent0005" id="entity_CU09"><ellipse cx="336.9975" cy="240.9335" fill="#F1F1F1" rx="108.2675" ry="24.0535" style="stroke:#181818;stroke-width:0.5;"/><text fill="#000000" font-family="sans-serif" font-size="14" lengthAdjust="spacing" textLength="194.127" x="239.934" y="245.5819">CU09: Editar datos de socio</text></g><!--entity CU10--><g class="entity" data-entity="CU10" data-source-line="10" data-uid="ent0006" id="entity_CU10"><ellipse cx="565.9978" cy="240.9276" fill="#F1F1F1" rx="86.0878" ry="19.6176" style="stroke:#181818;stroke-width:0.5;"/><text fill="#000000" font-family="sans-serif" font-size="14" lengthAdjust="spacing" textLength="144.8262" x="493.5847" y="245.576">CU10: Eliminar socio</text></g><!--entity CU11--><g class="entity" data-entity="CU11" data-source-line="14" data-uid="ent0008" id="entity_CU11"><ellipse cx="829.9956" cy="240.9331" fill="#F1F1F1" rx="121.5156" ry="26.7031" style="stroke:#181818;stroke-width:0.5;"/><text fill="#000000" font-family="sans-serif" font-size="14" lengthAdjust="spacing" textLength="222.585" x="718.7031" y="245.5816">CU11: Agregar m&#233;todo de pago</text></g><!--entity CU12--><g class="entity" data-entity="CU12" data-source-line="15" data-uid="ent0009" id="entity_CU12"><ellipse cx="1101.0048" cy="240.927" fill="#F1F1F1" rx="114.6848" ry="25.337" style="stroke:#181818;stroke-width:0.5;"/><text fill="#000000" font-family="sans-serif" font-size="14" lengthAdjust="spacing" textLength="207.9766" x="997.0165" y="245.5754">CU12: Editar m&#233;todo de pago</text></g><!--entity CU13--><g class="entity" data-entity="CU13" data-source-line="16" data-uid="ent0010" id="entity_CU13"><ellipse cx="1372.9988" cy="240.9258" fill="#F1F1F1" rx="122.1288" ry="26.8258" style="stroke:#181818;stroke-width:0.5;"/><text fill="#000000" font-family="sans-serif" font-size="14" lengthAdjust="spacing" textLength="223.8906" x="1261.0535" y="245.5742">CU13: Eliminar m&#233;todo de pago</text></g><!--entity CU14--><g class="entity" data-entity="CU14" data-source-line="20" data-uid="ent0012" id="entity_CU14"><ellipse cx="1688.0011" cy="240.9282" fill="#F1F1F1" rx="136.7411" ry="29.7482" style="stroke:#181818;stroke-width:0.5;"/><text fill="#000000" font-family="sans-serif" font-size="14" lengthAdjust="spacing" textLength="254.7686" x="1560.6168" y="245.5767">CU14: Editar acciones y capital total</text></g><!--entity CU15--><g class="entity" data-entity="CU15" data-source-line="21" data-uid="ent0013" id="entity_CU15"><ellipse cx="1994.0019" cy="240.9324" fill="#F1F1F1" rx="133.9119" ry="29.1824" style="stroke:#181818;stroke-width:0.5;"/><text fill="#000000" font-family="sans-serif" font-size="14" lengthAdjust="spacing" textLength="248.8213" x="1869.5913" y="245.5808">CU15: Editar direcciones de trabajo</text></g><!--entity CU16--><g class="entity" data-entity="CU16" data-source-line="22" data-uid="ent0014" id="entity_CU16"><ellipse cx="2294.0001" cy="240.926" fill="#F1F1F1" rx="131.5301" ry="28.706" style="stroke:#181818;stroke-width:0.5;"/><text fill="#000000" font-family="sans-serif" font-size="14" lengthAdjust="spacing" textLength="243.8037" x="2172.0983" y="245.5745">CU16: Editar seguridad y previsi&#243;n</text></g><!--entity CU17--><g class="entity" data-entity="CU17" data-source-line="23" data-uid="ent0015" id="entity_CU17"><ellipse cx="2659.0042" cy="240.9308" fill="#F1F1F1" rx="198.6542" ry="42.1308" style="stroke:#181818;stroke-width:0.5;"/><text fill="#000000" font-family="sans-serif" font-size="14" lengthAdjust="spacing" textLength="382.7305" x="2467.639" y="245.5793">CU17: Editar actividad econ&#243;mica y r&#233;gimen tributario</text></g><!--entity CU18--><g class="entity" data-entity="CU18" data-source-line="24" data-uid="ent0016" id="entity_CU18"><ellipse cx="2997.0011" cy="240.9302" fill="#F1F1F1" rx="104.5011" ry="23.3002" style="stroke:#181818;stroke-width:0.5;"/><text fill="#000000" font-family="sans-serif" font-size="14" lengthAdjust="spacing" textLength="185.9307" x="2904.0358" y="245.5787">CU18: Editar datos legales</text></g><!--entity CU19--><g class="entity" data-entity="CU19" data-source-line="25" data-uid="ent0017" id="entity_CU19"><ellipse cx="3250.002" cy="240.9264" fill="#F1F1F1" rx="113.432" ry="25.0864" style="stroke:#181818;stroke-width:0.5;"/><text fill="#000000" font-family="sans-serif" font-size="14" lengthAdjust="spacing" textLength="205.2832" x="3147.3604" y="245.5748">CU19: Editar datos generales</text></g><!--entity Administrador--><g class="entity" data-entity="Administrador" data-source-line="5" data-uid="ent0002" id="entity_Administrador"><ellipse cx="1530" cy="14" fill="#F1F1F1" rx="8" ry="8" style="stroke:#181818;stroke-width:0.5;"/><path d="M1530,22 L1530,49 M1517,30 L1543,30 M1530,49 L1517,64 M1530,49 L1543,64" fill="none" style="stroke:#181818;stroke-width:0.5;"/><text fill="#000000" font-family="sans-serif" font-size="14" lengthAdjust="spacing" textLength="99.0801" x="1480.46" y="78.4951">Administrador</text></g><!--entity CU02--><g class="entity" data-entity="CU02" data-source-line="28" data-uid="ent0018" id="entity_CU02"><ellipse cx="3482.004" cy="240.9348" fill="#F1F1F1" rx="83.474" ry="19.0948" style="stroke:#181818;stroke-width:0.5;"/><text fill="#000000" font-family="sans-serif" font-size="14" lengthAdjust="spacing" textLength="138.7969" x="3412.6056" y="245.5832">CU02: Iniciar sesi&#243;n</text></g><!--entity CU04--><g class="entity" data-entity="CU04" data-source-line="29" data-uid="ent0019" id="entity_CU04"><ellipse cx="3723.0039" cy="240.9268" fill="#F1F1F1" rx="122.0839" ry="26.8168" style="stroke:#181818;stroke-width:0.5;"/><text fill="#000000" font-family="sans-serif" font-size="14" lengthAdjust="spacing" textLength="223.7949" x="3611.1064" y="245.5752">CU04: Validar correo de usuario</text></g><!--link Administrador to CU08--><g class="link" data-entity-1="Administrador" data-entity-2="CU08" data-source-line="31" data-uid="lnk20" id="link_Administrador_CU08"><path d="M1480.16,47.25 C1328.69,55.29 860.45,81.01 473,111.8 C356.39,121.06 316.8,86.91 211,136.8 C170.95,155.68 140.986,192.0423 123.846,216.2623" fill="none" id="Administrador-to-CU08" style="stroke:#181818;stroke-width:1;"/><polygon fill="#181818" points="120.38,221.16,128.8441,216.1242,123.2683,217.0786,122.3139,211.5029,120.38,221.16" style="stroke:#181818;stroke-width:1;"/></g><!--link Administrador to CU09--><g class="link" data-entity-1="Administrador" data-entity-2="CU09" data-source-line="32" data-uid="lnk21" id="link_Administrador_CU09"><path d="M1480.02,44.58 C1335.39,45.14 904.36,52.08 553,111.8 C511.65,118.83 499.22,117.47 462,136.8 C421.55,157.8 386.4845,189.2792 363.0645,212.6792" fill="none" id="Administrador-to-CU09" style="stroke:#181818;stroke-width:1;"/><polygon fill="#181818" points="358.82,216.92,368.0139,213.3884,362.357,213.386,362.3595,207.7291,358.82,216.92" style="stroke:#181818;stroke-width:1;"/></g><!--link Administrador to CU10--><g class="link" data-entity-1="Administrador" data-entity-2="CU10" data-source-line="33" data-uid="lnk22" id="link_Administrador_CU10"><path d="M1480.07,44.36 C1292.28,43.78 635.83,46.47 572,111.8 C543.68,140.79 551.0311,187.526 558.5511,215.476" fill="none" id="Administrador-to-CU10" style="stroke:#181818;stroke-width:1;"/><polygon fill="#181818" points="560.11,221.27,561.6343,211.5398,558.8109,216.4417,553.9091,213.6183,560.11,221.27" style="stroke:#181818;stroke-width:1;"/></g><!--link Administrador to CU11--><g class="link" data-entity-1="Administrador" data-entity-2="CU11" data-source-line="34" data-uid="lnk23" id="link_Administrador_CU11"><path d="M1480.2,45.06 C1379.56,47.53 1146.46,61.65 969,136.8 C925,155.43 886.4632,186.646 860.2232,210.696" fill="none" id="Administrador-to-CU11" style="stroke:#181818;stroke-width:1;"/><polygon fill="#181818" points="855.8,214.75,865.1375,211.6177,859.486,211.3716,859.7321,205.7201,855.8,214.75" style="stroke:#181818;stroke-width:1;"/></g><!--link Administrador to CU12--><g class="link" data-entity-1="Administrador" data-entity-2="CU12" data-source-line="35" data-uid="lnk24" id="link_Administrador_CU12"><path d="M1480.03,54.34 C1419.22,67.42 1314.56,94.13 1233,136.8 C1192.03,158.23 1155.4487,188.771 1130.2687,211.901" fill="none" id="Administrador-to-CU12" style="stroke:#181818;stroke-width:1;"/><polygon fill="#181818" points="1125.85,215.96,1135.184,212.8174,1129.5322,212.5775,1129.7721,206.9258,1125.85,215.96" style="stroke:#181818;stroke-width:1;"/></g><!--link Administrador to CU13--><g class="link" data-entity-1="Administrador" data-entity-2="CU13" data-source-line="36" data-uid="lnk25" id="link_Administrador_CU13"><path d="M1480.16,48.92 C1439.23,55.36 1383.66,71.48 1356,111.8 C1335.18,142.15 1345.6412,180.6874 1357.5612,208.4274" fill="none" id="Administrador-to-CU13" style="stroke:#181818;stroke-width:1;"/><polygon fill="#181818" points="1359.93,213.94,1360.0519,204.0919,1357.956,209.3462,1352.7017,207.2503,1359.93,213.94" style="stroke:#181818;stroke-width:1;"/></g><!--link Administrador to CU14--><g class="link" data-entity-1="Administrador" data-entity-2="CU14" data-source-line="37" data-uid="lnk26" id="link_Administrador_CU14"><path d="M1579.84,48.92 C1620.77,55.36 1676.34,71.48 1704,111.8 C1724.1,141.1 1715.4256,177.6661 1704.1856,205.5161" fill="none" id="Administrador-to-CU14" style="stroke:#181818;stroke-width:1;"/><polygon fill="#181818" points="1701.94,211.08,1709.0176,204.2311,1703.8113,206.4434,1701.599,201.237,1701.94,211.08" style="stroke:#181818;stroke-width:1;"/></g><!--link Administrador to CU15--><g class="link" data-entity-1="Administrador" data-entity-2="CU15" data-source-line="38" data-uid="lnk27" id="link_Administrador_CU15"><path d="M1579.81,54.37 C1642.88,67.79 1753.92,95.15 1842,136.8 C1885.39,157.31 1925.5536,185.6797 1955.1936,208.5997" fill="none" id="Administrador-to-CU15" style="stroke:#181818;stroke-width:1;"/><polygon fill="#181818" points="1959.94,212.27,1955.2672,203.6002,1955.9846,209.2114,1950.3735,209.9288,1959.94,212.27" style="stroke:#181818;stroke-width:1;"/></g><!--link Administrador to CU16--><g class="link" data-entity-1="Administrador" data-entity-2="CU16" data-source-line="39" data-uid="lnk28" id="link_Administrador_CU16"><path d="M1579.8,44.58 C1687.05,46.01 1946.25,58.09 2145,136.8 C2190.19,154.7 2230.523,184.6822 2259.033,208.7222" fill="none" id="Administrador-to-CU16" style="stroke:#181818;stroke-width:1;"/><polygon fill="#181818" points="2263.62,212.59,2259.3181,203.7303,2259.7975,209.3668,2254.161,209.8463,2263.62,212.59" style="stroke:#181818;stroke-width:1;"/></g><!--link Administrador to CU17--><g class="link" data-entity-1="Administrador" data-entity-2="CU17" data-source-line="40" data-uid="lnk29" id="link_Administrador_CU17"><path d="M1579.77,47.41 C1745.58,56.97 2277.99,90.59 2443,136.8 C2495.62,151.53 2545.9075,175.4762 2587.4975,198.0662" fill="none" id="Administrador-to-CU17" style="stroke:#181818;stroke-width:1;"/><polygon fill="#181818" points="2592.77,200.93,2586.7705,193.1194,2588.3763,198.5435,2582.9521,200.1493,2592.77,200.93" style="stroke:#181818;stroke-width:1;"/></g><!--link Administrador to CU18--><g class="link" data-entity-1="Administrador" data-entity-2="CU18" data-source-line="41" data-uid="lnk30" id="link_Administrador_CU18"><path d="M1579.78,46.23 C1808.57,53.71 2753.12,87.4 2875,136.8 C2917.92,154.2 2952.7903,188.2809 2974.6103,213.0109" fill="none" id="Administrador-to-CU18" style="stroke:#181818;stroke-width:1;"/><polygon fill="#181818" points="2978.58,217.51,2975.6249,208.1149,2975.2719,213.7608,2969.6261,213.4078,2978.58,217.51" style="stroke:#181818;stroke-width:1;"/></g><!--link Administrador to CU19--><g class="link" data-entity-1="Administrador" data-entity-2="CU19" data-source-line="42" data-uid="lnk31" id="link_Administrador_CU19"><path d="M1580.03,46.65 C1752.83,53.68 2340.42,78.64 2825,111.8 C2955.83,120.75 2997.02,88.66 3119,136.8 C3162.89,154.12 3199.8082,186.8972 3223.8782,211.5472" fill="none" id="Administrador-to-CU19" style="stroke:#181818;stroke-width:1;"/><polygon fill="#181818" points="3228.07,215.84,3224.6441,206.6062,3224.5768,212.2626,3218.9203,212.1953,3228.07,215.84" style="stroke:#181818;stroke-width:1;"/></g><!--link CU08 to CU02--><g class="link" data-entity-1="CU08" data-entity-2="CU02" data-source-line="45" data-uid="lnk32" id="link_CU08_CU02"><path d="M120.44,221.24 C137.4,196.43 170.39,155.02 211,138.24 C292.33,104.62 3297.67,104.62 3379,138.24 C3419.84,155.12 3449.5993,191.9531 3466.4793,216.7031" fill="none" id="CU08-to-CU02" style="stroke:#181818;stroke-width:1;stroke-dasharray:7,7;"/><polygon fill="#181818" points="3469.86,221.66,3468.0935,211.9709,3467.0427,217.5293,3461.4843,216.4785,3469.86,221.66" style="stroke:#181818;stroke-width:1;"/><text fill="#000000" font-family="sans-serif" font-size="13" lengthAdjust="spacing" textLength="63.0068" x="1498.5" y="124.8669">&#171;include&#187;</text></g><!--link CU08 to CU04--><g class="link" data-entity-1="CU08" data-entity-2="CU04" data-source-line="46" data-uid="lnk33" id="link_CU08_CU04"><path d="M120.44,221.24 C137.4,196.43 170.39,155.02 211,138.24 C297.56,102.46 3493.98,109.09 3583,138.24 C3628.55,153.15 3667.205,184.9809 3693.235,210.1309" fill="none" id="CU08-to-CU04" style="stroke:#181818;stroke-width:1;stroke-dasharray:7,7;"/><polygon fill="#181818" points="3697.55,214.3,3693.857,205.1698,3693.9542,210.8258,3688.2982,210.923,3697.55,214.3" style="stroke:#181818;stroke-width:1;"/><text fill="#000000" font-family="sans-serif" font-size="13" lengthAdjust="spacing" textLength="63.0068" x="1428.5" y="124.8669">&#171;include&#187;</text></g><!--link CU09 to CU02--><g class="link" data-entity-1="CU09" data-entity-2="CU02" data-source-line="47" data-uid="lnk34" id="link_CU09_CU02"><path d="M356.62,217.15 C379.06,192 418.37,153.86 462,138.24 C538.28,110.92 3304.12,107.28 3379,138.24 C3419.84,155.12 3449.5993,191.9531 3466.4793,216.7031" fill="none" id="CU09-to-CU02" style="stroke:#181818;stroke-width:1;stroke-dasharray:7,7;"/><polygon fill="#181818" points="3469.86,221.66,3468.0935,211.9709,3467.0427,217.5293,3461.4843,216.4785,3469.86,221.66" style="stroke:#181818;stroke-width:1;"/><text fill="#000000" font-family="sans-serif" font-size="13" lengthAdjust="spacing" textLength="63.0068" x="1358.5" y="124.8669">&#171;include&#187;</text></g><!--link CU09 to CU04--><g class="link" data-entity-1="CU09" data-entity-2="CU04" data-source-line="48" data-uid="lnk35" id="link_CU09_CU04"><path d="M356.62,217.15 C379.06,192 418.37,153.86 462,138.24 C543.62,109.01 3500.61,111.26 3583,138.24 C3628.55,153.15 3667.205,184.9809 3693.235,210.1309" fill="none" id="CU09-to-CU04" style="stroke:#181818;stroke-width:1;stroke-dasharray:7,7;"/><polygon fill="#181818" points="3697.55,214.3,3693.857,205.1698,3693.9542,210.8258,3688.2982,210.923,3697.55,214.3" style="stroke:#181818;stroke-width:1;"/><text fill="#000000" font-family="sans-serif" font-size="13" lengthAdjust="spacing" textLength="63.0068" x="1568.5" y="124.8669">&#171;include&#187;</text></g><!--link CU10 to CU02--><g class="link" data-entity-1="CU10" data-entity-2="CU02" data-source-line="49" data-uid="lnk36" id="link_CU10_CU02"><path d="M581.89,221.57 C603.68,196.7 645.47,154.8 692,138.24 C762.32,113.21 3310.02,109.73 3379,138.24 C3419.84,155.12 3449.5993,191.9531 3466.4793,216.7031" fill="none" id="CU10-to-CU02" style="stroke:#181818;stroke-width:1;stroke-dasharray:7,7;"/><polygon fill="#181818" points="3469.86,221.66,3468.0935,211.9709,3467.0427,217.5293,3461.4843,216.4785,3469.86,221.66" style="stroke:#181818;stroke-width:1;"/><text fill="#000000" font-family="sans-serif" font-size="13" lengthAdjust="spacing" textLength="63.0068" x="1638.5" y="124.8669">&#171;include&#187;</text></g><!--link CU11 to CU08--><g class="link" data-entity-1="CU11" data-entity-2="CU08" data-source-line="50" data-uid="lnk37" id="link_CU11_CU08"><path d="M800.33,214.7 C769.66,189.49 719.17,153.09 668,138.24 C570.47,109.93 304.85,99.44 211,138.24 C170.39,155.02 140.786,191.4767 123.826,216.2867" fill="none" id="CU11-to-CU08" style="stroke:#181818;stroke-width:1;stroke-dasharray:7,7;"/><polygon fill="#181818" points="120.44,221.24,128.8212,216.0675,123.2617,217.1123,122.2169,211.5528,120.44,221.24" style="stroke:#181818;stroke-width:1;"/><text fill="#000000" font-family="sans-serif" font-size="13" lengthAdjust="spacing" textLength="63.0068" x="644.5" y="124.8669">&#171;include&#187;</text></g><!--link CU12 to CU08--><g class="link" data-entity-1="CU12" data-entity-2="CU08" data-source-line="51" data-uid="lnk38" id="link_CU12_CU08"><path d="M1078.67,215.74 C1054.53,190.57 1013.49,153.5 969,138.24 C889.34,110.9 288.84,106.06 211,138.24 C170.39,155.02 140.786,191.4767 123.826,216.2867" fill="none" id="CU12-to-CU08" style="stroke:#181818;stroke-width:1;stroke-dasharray:7,7;"/><polygon fill="#181818" points="120.44,221.24,128.8212,216.0675,123.2617,217.1123,122.2169,211.5528,120.44,221.24" style="stroke:#181818;stroke-width:1;"/><text fill="#000000" font-family="sans-serif" font-size="13" lengthAdjust="spacing" textLength="63.0068" x="574.5" y="124.8669">&#171;include&#187;</text></g><!--link CU13 to CU08--><g class="link" data-entity-1="CU13" data-entity-2="CU08" data-source-line="52" data-uid="lnk39" id="link_CU13_CU08"><path d="M1347.55,214.3 C1321.52,189.15 1278.55,153.15 1233,138.24 C1179.04,120.57 263.47,116.55 211,138.24 C170.39,155.02 140.786,191.4767 123.826,216.2867" fill="none" id="CU13-to-CU08" style="stroke:#181818;stroke-width:1;stroke-dasharray:7,7;"/><polygon fill="#181818" points="120.44,221.24,128.8212,216.0675,123.2617,217.1123,122.2169,211.5528,120.44,221.24" style="stroke:#181818;stroke-width:1;"/><text fill="#000000" font-family="sans-serif" font-size="13" lengthAdjust="spacing" textLength="63.0068" x="843.5" y="124.8669">&#171;include&#187;</text></g><!--SRC=[ZLJBRjim4BphAnQ-v9H2bEM7ZDI0OQk5WJeEOgH0Zmn926mboY2b04NHhyXNv9nFq8zr9LUsH5D0VD1XTcOrExlo3Np-uC-xWLtrkddwjb_0zlxB_d6tMc-hrtlOn13l7XxZmmf-m66_tkuFoFrmMu-o8jUmufbKqXIQybnxtf6oNpGHCFegJ26hTmLSm25dCZSZ-EC1b4OmQf2mVlBd2rWbMYHKWwaf8w06QjpYHGk8kIoGnccHcxfbZn_r-SH7VYhHbzMO-DxVZiLTzLRa_DJlWIRvbK52BWQp4xdc7XlkgIEn5C7Pwe0Wi0JZZjS1oRZdUjD646T7BGozTXsUFL26mojXu3SmUaGeXIB7Pzivj9IJIz1IYrQCxyBrFjEVPqSJIpSzwun8IYqvvVXAjFSYJNq4hMvgwMOTfuLyQNI2vQfwpoIZs49NRudCX483yhb4ucMNCwlNt3gI5DUM2jFIhPiYzaqbGWdT5KHrwjqhnDLkbMIocR8xbX_qU1Z_TvhYB1fOhhLezbcQicFU3pslz-70xUtoTFbEE7B2UCvEcBZXm0sFtN3eXYTkUEg6PsxOFIKcZly_6t4KYWk5EHlCBoln0hqw6VZKH1700kxkf69foSLosIs5rwLeM1KDgeW_g2BaVsb-NGg6IsDtwHy0]--></g></svg>