<svg xmlns="http://www.w3.org/2000/svg" xmlns:xlink="http://www.w3.org/1999/xlink" contentStyleType="text/css" data-diagram-type="DESCRIPTION" height="282px" preserveAspectRatio="none" style="width:7203px;height:282px;background:#FFFFFF;" version="1.1" viewBox="0 0 7203 282" width="7203px" zoomAndPan="magnify"><defs/><g><!--cluster Gesti?n de Trabajadores--><g class="cluster" data-entity="Gesti.n de Trabajadores" data-source-line="9" data-uid="ent0005" id="cluster_Gesti.n de Trabajadores"><path d="M8.5,144.8 L203.1484,144.8 A3.75,3.75 0 0 1 205.6484,147.3 L212.6484,167.0969 L2735.5,167.0969 A2.5,2.5 0 0 1 2738,169.5969 L2738,272.54 A2.5,2.5 0 0 1 2735.5,275.04 L8.5,275.04 A2.5,2.5 0 0 1 6,272.54 L6,147.3 A2.5,2.5 0 0 1 8.5,144.8" fill="none" style="stroke:#000000;stroke-width:1.5;"/><line style="stroke:#000000;stroke-width:1.5;" x1="6" x2="212.6484" y1="167.0969" y2="167.0969"/><text fill="#000000" font-family="sans-serif" font-size="14" font-weight="bold" lengthAdjust="spacing" textLength="193.6484" x="10" y="159.7951">Gesti&#243;n de Trabajadores</text></g><!--cluster Gesti?n de Contratos--><g class="cluster" data-entity="Gesti.n de Contratos" data-source-line="21" data-uid="ent0015" id="cluster_Gesti.n de Contratos"><path d="M2764.5,146.71 L2932.707,146.71 A3.75,3.75 0 0 1 2935.207,149.21 L2942.207,169.0069 L4485.5,169.0069 A2.5,2.5 0 0 1 4488,171.5069 L4488,270.63 A2.5,2.5 0 0 1 4485.5,273.13 L2764.5,273.13 A2.5,2.5 0 0 1 2762,270.63 L2762,149.21 A2.5,2.5 0 0 1 2764.5,146.71" fill="none" style="stroke:#000000;stroke-width:1.5;"/><line style="stroke:#000000;stroke-width:1.5;" x1="2762" x2="2942.207" y1="169.0069" y2="169.0069"/><text fill="#000000" font-family="sans-serif" font-size="14" font-weight="bold" lengthAdjust="spacing" textLength="167.207" x="2766" y="161.7051">Gesti&#243;n de Contratos</text></g><!--cluster Gesti?n de E.P.P. y O.D.I.--><g class="cluster" data-entity="Gesti.n de E.P.P. y O.D.I." data-source-line="30" data-uid="ent0022" id="cluster_Gesti.n de E.P.P. y O.D.I."><path d="M5019.5,149.22 L5219.7607,149.22 A3.75,3.75 0 0 1 5222.2607,151.72 L5229.2607,171.5169 L6728.5,171.5169 A2.5,2.5 0 0 1 6731,174.0169 L6731,268.12 A2.5,2.5 0 0 1 6728.5,270.62 L5019.5,270.62 A2.5,2.5 0 0 1 5017,268.12 L5017,151.72 A2.5,2.5 0 0 1 5019.5,149.22" fill="none" style="stroke:#000000;stroke-width:1.5;"/><line style="stroke:#000000;stroke-width:1.5;" x1="5017" x2="5229.2607" y1="171.5169" y2="171.5169"/><text fill="#000000" font-family="sans-serif" font-size="14" font-weight="bold" lengthAdjust="spacing" textLength="199.2607" x="5021" y="164.2151">Gesti&#243;n de E.P.P. y O.D.I.</text></g><!--cluster Gesti?n de Permisos--><g class="cluster" data-entity="Gesti.n de Permisos" data-source-line="40" data-uid="ent0030" id="cluster_Gesti.n de Permisos"><path d="M4514.5,150.16 L4677.4912,150.16 A3.75,3.75 0 0 1 4679.9912,152.66 L4686.9912,172.4569 L4990.5,172.4569 A2.5,2.5 0 0 1 4993,174.9569 L4993,267.18 A2.5,2.5 0 0 1 4990.5,269.68 L4514.5,269.68 A2.5,2.5 0 0 1 4512,267.18 L4512,152.66 A2.5,2.5 0 0 1 4514.5,150.16" fill="none" style="stroke:#000000;stroke-width:1.5;"/><line style="stroke:#000000;stroke-width:1.5;" x1="4512" x2="4686.9912" y1="172.4569" y2="172.4569"/><text fill="#000000" font-family="sans-serif" font-size="14" font-weight="bold" lengthAdjust="spacing" textLength="161.9912" x="4516" y="165.1551">Gesti&#243;n de Permisos</text></g><!--entity CU20--><g class="entity" data-entity="CU20" data-source-line="10" data-uid="ent0006" id="entity_CU20"><ellipse cx="2608.9977" cy="228.9235" fill="#F1F1F1" rx="112.5177" ry="24.9035" style="stroke:#181818;stroke-width:0.5;"/><text fill="#000000" font-family="sans-serif" font-size="14" lengthAdjust="spacing" textLength="203.3145" x="2507.3404" y="233.572">CU20: Crear perfil trabajador</text></g><!--entity CU21--><g class="entity" data-entity="CU21" data-source-line="11" data-uid="ent0007" id="entity_CU21"><ellipse cx="1661.9979" cy="228.9176" fill="#F1F1F1" rx="126.6879" ry="27.7376" style="stroke:#181818;stroke-width:0.5;"/><text fill="#000000" font-family="sans-serif" font-size="14" lengthAdjust="spacing" textLength="233.5703" x="1545.2128" y="233.566">CU21: Ingresar datos de contrato</text></g><!--entity CU22--><g class="entity" data-entity="CU22" data-source-line="12" data-uid="ent0008" id="entity_CU22"><ellipse cx="1956.0038" cy="228.9228" fill="#F1F1F1" rx="132.1138" ry="28.8228" style="stroke:#181818;stroke-width:0.5;"/><text fill="#000000" font-family="sans-serif" font-size="14" lengthAdjust="spacing" textLength="245.0342" x="1833.4867" y="233.5712">CU22: Ingresar datos previsionales</text></g><!--entity CU23--><g class="entity" data-entity="CU23" data-source-line="13" data-uid="ent0009" id="entity_CU23"><ellipse cx="2259.9978" cy="228.9156" fill="#F1F1F1" rx="136.8778" ry="29.7756" style="stroke:#181818;stroke-width:0.5;"/><text fill="#000000" font-family="sans-serif" font-size="14" lengthAdjust="spacing" textLength="255.0557" x="2132.47" y="233.564">CU23: Subir documentos personales</text></g><!--entity CU24--><g class="entity" data-entity="CU24" data-source-line="14" data-uid="ent0010" id="entity_CU24"><ellipse cx="1385.996" cy="228.9192" fill="#F1F1F1" rx="113.896" ry="25.1792" style="stroke:#181818;stroke-width:0.5;"/><text fill="#000000" font-family="sans-serif" font-size="14" lengthAdjust="spacing" textLength="206.2813" x="1282.8553" y="233.5676">CU24: Editar perfil trabajador</text></g><!--entity CU25--><g class="entity" data-entity="CU25" data-source-line="15" data-uid="ent0011" id="entity_CU25"><ellipse cx="1111.0023" cy="228.9205" fill="#F1F1F1" rx="126.3523" ry="27.6705" style="stroke:#181818;stroke-width:0.5;"/><text fill="#000000" font-family="sans-serif" font-size="14" lengthAdjust="spacing" textLength="232.8594" x="994.5726" y="233.5689">CU25: Buscar trabajador por RUT</text></g><!--entity CU26--><g class="entity" data-entity="CU26" data-source-line="16" data-uid="ent0012" id="entity_CU26"><ellipse cx="153.9966" cy="228.9173" fill="#F1F1F1" rx="131.5366" ry="28.7073" style="stroke:#181818;stroke-width:0.5;"/><text fill="#000000" font-family="sans-serif" font-size="14" lengthAdjust="spacing" textLength="243.8174" x="32.0879" y="233.5658">CU26: Buscar trabajador por cargo</text></g><!--entity CU27--><g class="entity" data-entity="CU27" data-source-line="17" data-uid="ent0013" id="entity_CU27"><ellipse cx="458.998" cy="228.9196" fill="#F1F1F1" rx="138.598" ry="30.1196" style="stroke:#181818;stroke-width:0.5;"/><text fill="#000000" font-family="sans-serif" font-size="14" lengthAdjust="spacing" textLength="258.665" x="329.6655" y="233.568">CU27: Buscar trabajador por nombre</text></g><!--entity CU28--><g class="entity" data-entity="CU28" data-source-line="18" data-uid="ent0014" id="entity_CU28"><ellipse cx="758.9978" cy="228.9176" fill="#F1F1F1" rx="126.1878" ry="27.6376" style="stroke:#181818;stroke-width:0.5;"/><text fill="#000000" font-family="sans-serif" font-size="14" lengthAdjust="spacing" textLength="232.5107" x="642.7424" y="233.566">CU28: Visualizar perfil trabajador</text></g><!--entity CU32--><g class="entity" data-entity="CU32" data-source-line="22" data-uid="ent0016" id="entity_CU32"><ellipse cx="3855.0011" cy="228.9162" fill="#F1F1F1" rx="115.3311" ry="25.4662" style="stroke:#181818;stroke-width:0.5;"/><text fill="#000000" font-family="sans-serif" font-size="14" lengthAdjust="spacing" textLength="209.3643" x="3750.319" y="233.5647">CU32: Crear plantilla contrato</text></g><!--entity CU33--><g class="entity" data-entity="CU33" data-source-line="23" data-uid="ent0017" id="entity_CU33"><ellipse cx="4133.9965" cy="228.9193" fill="#F1F1F1" rx="129.0465" ry="28.2093" style="stroke:#181818;stroke-width:0.5;"/><text fill="#000000" font-family="sans-serif" font-size="14" lengthAdjust="spacing" textLength="238.5605" x="4014.7162" y="233.5677">CU33: Visualizar plantilla contrato</text></g><!--entity CU34--><g class="entity" data-entity="CU34" data-source-line="24" data-uid="ent0018" id="entity_CU34"><ellipse cx="3552" cy="228.918" fill="#F1F1F1" rx="87.89" ry="19.978" style="stroke:#181818;stroke-width:0.5;"/><text fill="#000000" font-family="sans-serif" font-size="14" lengthAdjust="spacing" textLength="148.9482" x="3477.5259" y="233.5664">CU34: Crear contrato</text></g><!--entity CU35--><g class="entity" data-entity="CU35" data-source-line="25" data-uid="ent0019" id="entity_CU35"><ellipse cx="4385.0029" cy="228.9206" fill="#F1F1F1" rx="87.3029" ry="19.8606" style="stroke:#181818;stroke-width:0.5;"/><text fill="#000000" font-family="sans-serif" font-size="14" lengthAdjust="spacing" textLength="147.6084" x="4311.1987" y="233.569">CU35: Crear cl&#225;usula</text></g><!--entity CU36--><g class="entity" data-entity="CU36" data-source-line="26" data-uid="ent0020" id="entity_CU36"><ellipse cx="3244.9994" cy="228.9179" fill="#F1F1F1" rx="119.4894" ry="26.2979" style="stroke:#181818;stroke-width:0.5;"/><text fill="#000000" font-family="sans-serif" font-size="14" lengthAdjust="spacing" textLength="218.2646" x="3135.8671" y="233.5663">CU36: Crear anexo de contrato</text></g><!--entity CU37--><g class="entity" data-entity="CU37" data-source-line="27" data-uid="ent0021" id="entity_CU37"><ellipse cx="2902.0028" cy="228.9206" fill="#F1F1F1" rx="123.5528" ry="27.1106" style="stroke:#181818;stroke-width:0.5;"/><text fill="#000000" font-family="sans-serif" font-size="14" lengthAdjust="spacing" textLength="226.9189" x="2788.5433" y="233.569">CU37: Agregar anexo a contrato</text></g><!--entity CU38--><g class="entity" data-entity="CU38" data-source-line="31" data-uid="ent0023" id="entity_CU38"><ellipse cx="6638.0045" cy="228.9249" fill="#F1F1F1" rx="77.4245" ry="17.8849" style="stroke:#181818;stroke-width:0.5;"/><text fill="#000000" font-family="sans-serif" font-size="14" lengthAdjust="spacing" textLength="124.5645" x="6575.7222" y="233.5733">CU38: Crear E.P.P</text></g><!--entity CU39--><g class="entity" data-entity="CU39" data-source-line="32" data-uid="ent0024" id="entity_CU39"><ellipse cx="6377.9959" cy="228.9172" fill="#F1F1F1" rx="83.5359" ry="19.1072" style="stroke:#181818;stroke-width:0.5;"/><text fill="#000000" font-family="sans-serif" font-size="14" lengthAdjust="spacing" textLength="138.9404" x="6308.5257" y="233.5656">CU39: Asignar E.P.P</text></g><!--entity CU40--><g class="entity" data-entity="CU40" data-source-line="33" data-uid="ent0025" id="entity_CU40"><ellipse cx="5132.9978" cy="228.9196" fill="#F1F1F1" rx="99.9978" ry="22.3996" style="stroke:#181818;stroke-width:0.5;"/><text fill="#000000" font-family="sans-serif" font-size="14" lengthAdjust="spacing" textLength="176.0527" x="5044.9714" y="233.568">CU40: Subir PDF de E.P.P</text></g><!--entity CU41--><g class="entity" data-entity="CU41" data-source-line="34" data-uid="ent0026" id="entity_CU41"><ellipse cx="6143.0012" cy="228.9242" fill="#F1F1F1" rx="116.4212" ry="25.6842" style="stroke:#181818;stroke-width:0.5;"/><text fill="#000000" font-family="sans-serif" font-size="14" lengthAdjust="spacing" textLength="211.7021" x="6037.1502" y="233.5727">CU41: Descargar PDF de E.P.P</text></g><!--entity CU42--><g class="entity" data-entity="CU42" data-source-line="35" data-uid="ent0027" id="entity_CU42"><ellipse cx="5913.9974" cy="228.9215" fill="#F1F1F1" rx="77.5074" ry="17.9015" style="stroke:#181818;stroke-width:0.5;"/><text fill="#000000" font-family="sans-serif" font-size="14" lengthAdjust="spacing" textLength="124.7627" x="5851.6161" y="233.5699">CU42: Crear O.D.I</text></g><!--entity CU43--><g class="entity" data-entity="CU43" data-source-line="36" data-uid="ent0028" id="entity_CU43"><ellipse cx="5367.9977" cy="228.9175" fill="#F1F1F1" rx="100.0877" ry="22.4175" style="stroke:#181818;stroke-width:0.5;"/><text fill="#000000" font-family="sans-serif" font-size="14" lengthAdjust="spacing" textLength="176.251" x="5279.8722" y="233.566">CU43: Subir PDF de O.D.I</text></g><!--entity CU44--><g class="entity" data-entity="CU44" data-source-line="37" data-uid="ent0029" id="entity_CU44"><ellipse cx="5620.0037" cy="228.9227" fill="#F1F1F1" rx="116.5137" ry="25.7027" style="stroke:#181818;stroke-width:0.5;"/><text fill="#000000" font-family="sans-serif" font-size="14" lengthAdjust="spacing" textLength="211.9004" x="5514.0535" y="233.5712">CU44: Descargar PDF de O.D.I</text></g><!--entity CU45--><g class="entity" data-entity="CU45" data-source-line="41" data-uid="ent0031" id="entity_CU45"><ellipse cx="4882.0049" cy="228.919" fill="#F1F1F1" rx="94.8949" ry="21.379" style="stroke:#181818;stroke-width:0.5;"/><text fill="#000000" font-family="sans-serif" font-size="14" lengthAdjust="spacing" textLength="164.7393" x="4799.6353" y="233.5674">CU45: Solicitar permiso</text></g><!--entity CU46--><g class="entity" data-entity="CU46" data-source-line="42" data-uid="ent0032" id="entity_CU46"><ellipse cx="4639.9988" cy="228.9158" fill="#F1F1F1" rx="111.7788" ry="24.7558" style="stroke:#181818;stroke-width:0.5;"/><text fill="#000000" font-family="sans-serif" font-size="14" lengthAdjust="spacing" textLength="201.7217" x="4539.138" y="233.5642">CU46: Subir permiso al perfil</text></g><!--entity RRHH--><g class="entity" data-entity="RRHH" data-source-line="5" data-uid="ent0002" id="entity_RRHH"><ellipse cx="6631.0001" cy="14" fill="#F1F1F1" rx="8" ry="8" style="stroke:#181818;stroke-width:0.5;"/><path d="M6631.0001,22 L6631.0001,49 M6618.0001,30 L6644.0001,30 M6631.0001,49 L6618.0001,64 M6631.0001,49 L6644.0001,64" fill="none" style="stroke:#181818;stroke-width:0.5;"/><text fill="#000000" font-family="sans-serif" font-size="14" lengthAdjust="spacing" textLength="134.6201" x="6563.69" y="78.4951">Recursos Humanos</text></g><!--entity Administrador--><g class="entity" data-entity="Administrador" data-source-line="6" data-uid="ent0003" id="entity_Administrador"><ellipse cx="4293" cy="14" fill="#F1F1F1" rx="8" ry="8" style="stroke:#181818;stroke-width:0.5;"/><path d="M4293,22 L4293,49 M4280,30 L4306,30 M4293,49 L4280,64 M4293,49 L4306,64" fill="none" style="stroke:#181818;stroke-width:0.5;"/><text fill="#000000" font-family="sans-serif" font-size="14" lengthAdjust="spacing" textLength="99.0801" x="4243.46" y="78.4951">Administrador</text></g><!--entity Contador--><g class="entity" data-entity="Contador" data-source-line="7" data-uid="ent0004" id="entity_Contador"><ellipse cx="608.9951" cy="14" fill="#F1F1F1" rx="8" ry="8" style="stroke:#181818;stroke-width:0.5;"/><path d="M608.9951,22 L608.9951,49 M595.9951,30 L621.9951,30 M608.9951,49 L595.9951,64 M608.9951,49 L621.9951,64" fill="none" style="stroke:#181818;stroke-width:0.5;"/><text fill="#000000" font-family="sans-serif" font-size="14" lengthAdjust="spacing" textLength="64.4902" x="576.75" y="78.4951">Contador</text></g><!--entity CU02--><g class="entity" data-entity="CU02" data-source-line="45" data-uid="ent0033" id="entity_CU02"><ellipse cx="6834.004" cy="228.9248" fill="#F1F1F1" rx="83.474" ry="19.0948" style="stroke:#181818;stroke-width:0.5;"/><text fill="#000000" font-family="sans-serif" font-size="14" lengthAdjust="spacing" textLength="138.7969" x="6764.6056" y="233.5732">CU02: Iniciar sesi&#243;n</text></g><!--entity CU04--><g class="entity" data-entity="CU04" data-source-line="46" data-uid="ent0034" id="entity_CU04"><ellipse cx="7075.0039" cy="228.9168" fill="#F1F1F1" rx="122.0839" ry="26.8168" style="stroke:#181818;stroke-width:0.5;"/><text fill="#000000" font-family="sans-serif" font-size="14" lengthAdjust="spacing" textLength="223.7949" x="6963.1064" y="233.5652">CU04: Validar correo de usuario</text></g><!--link RRHH to CU20--><g class="link" data-entity-1="RRHH" data-entity-2="CU20" data-source-line="49" data-uid="lnk35" id="link_RRHH_CU20"><path d="M6563.3,65.54 C6487.96,88.37 6370.79,122.57 6325,128.8 C6275.97,135.48 2809.7,123.62 2762,136.8 C2714.47,149.94 2671.5337,178.4322 2642.3337,200.7922" fill="none" id="RRHH-to-CU20" style="stroke:#181818;stroke-width:1;"/><polygon fill="#181818" points="2637.57,204.44,2647.1475,202.1441,2641.5398,201.4001,2642.2837,195.7924,2637.57,204.44" style="stroke:#181818;stroke-width:1;"/></g><!--link RRHH to CU25--><g class="link" data-entity-1="RRHH" data-entity-2="CU25" data-source-line="50" data-uid="lnk36" id="link_RRHH_CU25"><path d="M6563.66,45.81 C6289.54,50.52 5230.86,68.59 4360,81.8 C3406.24,96.27 3167.68,92.7 2214,111.8 C2187.36,112.33 1280.5,129.05 1255,136.8 C1211.83,149.92 1173.6937,176.0124 1146.1037,197.9824" fill="none" id="RRHH-to-CU25" style="stroke:#181818;stroke-width:1;"/><polygon fill="#181818" points="1141.41,201.72,1150.9422,199.2427,1145.3214,198.6054,1145.9588,192.9845,1141.41,201.72" style="stroke:#181818;stroke-width:1;"/></g><!--link RRHH to CU34--><g class="link" data-entity-1="RRHH" data-entity-2="CU34" data-source-line="51" data-uid="lnk37" id="link_RRHH_CU34"><path d="M6605.2,82.15 C6590.69,99.86 6570.89,119.19 6548,128.8 C6511.81,144 3760.05,127.19 3722,136.8 C3666.32,150.87 3613.8623,183.5348 3582.0523,205.8448" fill="none" id="RRHH-to-CU34" style="stroke:#181818;stroke-width:1;"/><polygon fill="#181818" points="3577.14,209.29,3586.8052,207.397,3581.2336,206.419,3582.2116,200.8473,3577.14,209.29" style="stroke:#181818;stroke-width:1;"/></g><!--link RRHH to CU38--><g class="link" data-entity-1="RRHH" data-entity-2="CU38" data-source-line="52" data-uid="lnk38" id="link_RRHH_CU38"><path d="M6698.63,66.19 C6719.82,76.49 6740.82,91.2 6753,111.8 C6756.84,118.31 6757.24,122.54 6753,128.8 C6747.63,136.73 6741.05,131.61 6733,136.8 C6700.34,157.85 6673.0925,186.5797 6655.8225,206.5697" fill="none" id="RRHH-to-CU38" style="stroke:#181818;stroke-width:1;"/><polygon fill="#181818" points="6651.9,211.11,6660.8106,206.9146,6655.1687,207.3264,6654.7569,201.6846,6651.9,211.11" style="stroke:#181818;stroke-width:1;"/></g><!--link RRHH to CU42--><g class="link" data-entity-1="RRHH" data-entity-2="CU42" data-source-line="53" data-uid="lnk39" id="link_RRHH_CU42"><path d="M6697.92,82.14 C6716.03,96.78 6726.97,113.66 6712,128.8 C6698.27,142.69 6027.08,129.41 6009,136.8 C5971.98,151.93 5944.688,184.0924 5928.898,206.0024" fill="none" id="RRHH-to-CU42" style="stroke:#181818;stroke-width:1;"/><polygon fill="#181818" points="5925.39,210.87,5933.8971,205.9072,5928.3133,206.8136,5927.4069,201.2299,5925.39,210.87" style="stroke:#181818;stroke-width:1;"/></g><!--link RRHH to CU45--><g class="link" data-entity-1="RRHH" data-entity-2="CU45" data-source-line="54" data-uid="lnk40" id="link_RRHH_CU45"><path d="M6625.09,82.15 C6620.3,99.39 6611.64,118.31 6596,128.8 C6577.79,141.02 5037.96,130.33 5017,136.8 C4971.61,150.81 4932.1147,181.6717 4907.2647,203.9817" fill="none" id="RRHH-to-CU45" style="stroke:#181818;stroke-width:1;"/><polygon fill="#181818" points="4902.8,207.99,4912.1692,204.954,4906.5206,204.6497,4906.8248,199.0011,4902.8,207.99" style="stroke:#181818;stroke-width:1;"/></g><!--link Administrador to CU20--><g class="link" data-entity-1="Administrador" data-entity-2="CU20" data-source-line="55" data-uid="lnk41" id="link_Administrador_CU20"><path d="M4243.19,45.31 C3929.96,49.54 2244.56,74.04 2208,111.8 C2202.74,117.23 2202.76,123.36 2208,128.8 C2215.94,137.05 2402.87,134.1 2414,136.8 C2472.1,150.89 2528.5601,179.9492 2566.6201,202.0292" fill="none" id="Administrador-to-CU20" style="stroke:#181818;stroke-width:1;"/><polygon fill="#181818" points="2571.81,205.04,2566.0324,197.0638,2567.4851,202.531,2562.018,203.9837,2571.81,205.04" style="stroke:#181818;stroke-width:1;"/></g><!--link Administrador to CU25--><g class="link" data-entity-1="Administrador" data-entity-2="CU25" data-source-line="56" data-uid="lnk42" id="link_Administrador_CU25"><path d="M4243.1,44.58 C3872.27,44.25 1551.96,45.83 1255,136.8 C1211.86,150.01 1173.7162,176.0855 1146.1262,198.0255" fill="none" id="Administrador-to-CU25" style="stroke:#181818;stroke-width:1;"/><polygon fill="#181818" points="1141.43,201.76,1150.9639,199.2891,1145.3435,198.648,1145.9846,193.0276,1141.43,201.76" style="stroke:#181818;stroke-width:1;"/></g><!--link Administrador to CU34--><g class="link" data-entity-1="Administrador" data-entity-2="CU34" data-source-line="57" data-uid="lnk43" id="link_Administrador_CU34"><path d="M4242.97,45.32 C3930.24,49.61 2256.33,74.28 2220,111.8 C2214.74,117.23 2214.68,123.44 2220,128.8 C2231.37,140.25 3366.36,132.82 3382,136.8 C3437.65,150.98 3490.115,183.6086 3521.935,205.8886" fill="none" id="Administrador-to-CU34" style="stroke:#181818;stroke-width:1;"/><polygon fill="#181818" points="3526.85,209.33,3521.7718,200.8913,3522.7542,206.4622,3517.1833,207.4445,3526.85,209.33" style="stroke:#181818;stroke-width:1;"/></g><!--link Administrador to CU38--><g class="link" data-entity-1="Administrador" data-entity-2="CU38" data-source-line="58" data-uid="lnk44" id="link_Administrador_CU38"><path d="M4343.02,44.66 C4669.35,44.86 6484.88,48.81 6582,111.8 C6616.55,134.21 6629.2373,178.496 6634.2773,204.956" fill="none" id="Administrador-to-CU38" style="stroke:#181818;stroke-width:1;"/><polygon fill="#181818" points="6635.4,210.85,6637.6453,201.2605,6634.4644,205.9383,6629.7866,202.7574,6635.4,210.85" style="stroke:#181818;stroke-width:1;"/></g><!--link Administrador to CU42--><g class="link" data-entity-1="Administrador" data-entity-2="CU42" data-source-line="59" data-uid="lnk45" id="link_Administrador_CU42"><path d="M4343,45.18 C4672.06,48.78 6515.13,70.73 6555,111.8 C6560.26,117.22 6560.3,123.42 6555,128.8 C6544.35,139.6 6023.03,131.04 6009,136.8 C5972,151.99 5944.699,184.1231 5928.909,206.0231" fill="none" id="Administrador-to-CU42" style="stroke:#181818;stroke-width:1;"/><polygon fill="#181818" points="5925.4,210.89,5933.9082,205.929,5928.3242,206.8343,5927.419,201.2503,5925.4,210.89" style="stroke:#181818;stroke-width:1;"/></g><!--link Administrador to CU45--><g class="link" data-entity-1="Administrador" data-entity-2="CU45" data-source-line="60" data-uid="lnk46" id="link_Administrador_CU45"><path d="M4343,44.36 C4649.22,42.8 6260.69,38.1 6332,111.8 C6337.25,117.23 6337.33,123.44 6332,128.8 C6319.12,141.75 5034.45,131.41 5017,136.8 C4971.89,150.75 4932.6502,181.2778 4907.7202,203.5978" fill="none" id="Administrador-to-CU45" style="stroke:#181818;stroke-width:1;"/><polygon fill="#181818" points="4903.25,207.6,4912.6234,204.5768,4906.9752,204.2648,4907.2871,198.6166,4903.25,207.6" style="stroke:#181818;stroke-width:1;"/></g><!--link Contador to CU25--><g class="link" data-entity-1="Contador" data-entity-2="CU25" data-source-line="61" data-uid="lnk47" id="link_Contador_CU25"><path d="M641.58,53.6 C696.24,68.9 809.58,101.82 903,136.8 C957.09,157.06 1011.9461,181.4472 1053.6361,200.7672" fill="none" id="Contador-to-CU25" style="stroke:#181818;stroke-width:1;"/><polygon fill="#181818" points="1059.08,203.29,1052.5961,195.8766,1054.5435,201.1877,1049.2324,203.135,1059.08,203.29" style="stroke:#181818;stroke-width:1;"/></g><!--link Contador to CU26--><g class="link" data-entity-1="Contador" data-entity-2="CU26" data-source-line="62" data-uid="lnk48" id="link_Contador_CU26"><path d="M576.31,51.59 C519.25,64.32 398.46,94.09 303,136.8 C263.14,154.63 225.9437,177.8592 196.6837,197.7292" fill="none" id="Contador-to-CU26" style="stroke:#181818;stroke-width:1;"/><polygon fill="#181818" points="191.72,201.1,201.4127,199.353,195.8564,198.291,196.9183,192.7348,191.72,201.1" style="stroke:#181818;stroke-width:1;"/></g><!--link Contador to CU27--><g class="link" data-entity-1="Contador" data-entity-2="CU27" data-source-line="63" data-uid="lnk49" id="link_Contador_CU27"><path d="M578.28,82.18 C550,116.74 512.4196,162.6464 486.5796,194.2264" fill="none" id="Contador-to-CU27" style="stroke:#181818;stroke-width:1;"/><polygon fill="#181818" points="482.78,198.87,491.5751,194.4376,485.9463,195.0003,485.3836,189.3715,482.78,198.87" style="stroke:#181818;stroke-width:1;"/></g><!--link Contador to CU28--><g class="link" data-entity-1="Contador" data-entity-2="CU28" data-source-line="64" data-uid="lnk50" id="link_Contador_CU28"><path d="M639.72,82.18 C668.77,117.68 707.8397,165.417 733.4997,196.767" fill="none" id="Contador-to-CU28" style="stroke:#181818;stroke-width:1;"/><polygon fill="#181818" points="737.3,201.41,734.6949,191.9119,734.1331,197.5408,728.5042,196.979,737.3,201.41" style="stroke:#181818;stroke-width:1;"/></g><!--link CU20 to CU02--><g class="link" data-entity-1="CU20" data-entity-2="CU02" data-source-line="67" data-uid="lnk51" id="link_CU20_CU02"><path d="M2638.35,204.52 C2667.58,181.93 2714.8,149.92 2762,136.8 C2957.35,82.51 6208.75,136.25 6411.5,136.24 C6553.5,136.23 6598.4,85.99 6731,136.8 C6769.08,151.39 6798.2777,182.5321 6816.0977,204.9621" fill="none" id="CU20-to-CU02" style="stroke:#181818;stroke-width:1;stroke-dasharray:7,7;"/><polygon fill="#181818" points="6819.83,209.66,6817.3634,200.125,6816.7197,205.7451,6811.0996,205.1014,6819.83,209.66" style="stroke:#181818;stroke-width:1;"/><text fill="#000000" font-family="sans-serif" font-size="13" lengthAdjust="spacing" textLength="63.0068" x="6412.5" y="124.8669">&#171;include&#187;</text></g><!--link CU20 to CU04--><g class="link" data-entity-1="CU20" data-entity-2="CU04" data-source-line="68" data-uid="lnk52" id="link_CU20_CU04"><path d="M2638.35,204.52 C2667.58,181.93 2714.8,149.92 2762,136.8 C2961.09,81.47 6274.86,136.25 6481.5,136.24 C6582.28,136.23 6838.48,107.82 6935,136.8 C6977.64,149.6 7014.7168,176.1496 7041.3568,198.5396" fill="none" id="CU20-to-CU04" style="stroke:#181818;stroke-width:1;stroke-dasharray:7,7;"/><polygon fill="#181818" points="7045.95,202.4,7041.6338,193.5473,7042.1224,199.183,7036.4866,199.6715,7045.95,202.4" style="stroke:#181818;stroke-width:1;"/><text fill="#000000" font-family="sans-serif" font-size="13" lengthAdjust="spacing" textLength="63.0068" x="6482.5" y="124.8669">&#171;include&#187;</text></g><!--link CU21 to CU20--><g class="link" data-entity-1="CU21" data-entity-2="CU20" data-source-line="71" data-uid="lnk53" id="link_CU21_CU20"><path d="M1692.83,201.72 C1720.34,179.39 1762.85,149.44 1806,136.8 C1872.16,117.41 2359.45,120.19 2426.5,136.24 C2481.62,149.43 2533.8578,178.9079 2569.2078,201.7079" fill="none" id="CU21-to-CU20" style="stroke:#181818;stroke-width:1;stroke-dasharray:7,7;"/><polygon fill="#181818" points="2574.25,204.96,2568.8548,196.7204,2570.0482,202.2499,2564.5186,203.4433,2574.25,204.96" style="stroke:#181818;stroke-width:1;"/><text fill="#000000" font-family="sans-serif" font-size="13" lengthAdjust="spacing" textLength="63.0068" x="2362.5" y="124.8669">&#171;include&#187;</text></g><!--link CU22 to CU20--><g class="link" data-entity-1="CU22" data-entity-2="CU20" data-source-line="72" data-uid="lnk54" id="link_CU22_CU20"><path d="M1989.75,200.62 C2018.57,178.41 2062.2,149.25 2106,136.8 C2171.84,118.09 2347.29,121.49 2414,136.8 C2472.02,150.12 2528.0303,179.3678 2566.0603,201.9378" fill="none" id="CU22-to-CU20" style="stroke:#181818;stroke-width:1;stroke-dasharray:7,7;"/><polygon fill="#181818" points="2571.22,205,2565.5219,196.9669,2566.9202,202.4482,2561.4389,203.8465,2571.22,205" style="stroke:#181818;stroke-width:1;"/><text fill="#000000" font-family="sans-serif" font-size="13" lengthAdjust="spacing" textLength="63.0068" x="2292.5" y="124.8669">&#171;include&#187;</text></g><!--link CU23 to CU20--><g class="link" data-entity-1="CU23" data-entity-2="CU20" data-source-line="73" data-uid="lnk55" id="link_CU23_CU20"><path d="M2397.18,228.92 C2429.91,228.92 2458.48,228.92 2489.99,228.92" fill="none" id="CU23-to-CU20" style="stroke:#181818;stroke-width:1;stroke-dasharray:7,7;"/><polygon fill="#181818" points="2495.99,228.92,2486.99,224.92,2490.99,228.92,2486.99,232.92,2495.99,228.92" style="stroke:#181818;stroke-width:1;"/><text fill="#000000" font-family="sans-serif" font-size="13" lengthAdjust="spacing" textLength="63.0068" x="2415.18" y="221.9869">&#171;include&#187;</text></g><!--link CU24 to CU20--><g class="link" data-entity-1="CU24" data-entity-2="CU20" data-source-line="74" data-uid="lnk56" id="link_CU24_CU20"><path d="M1411.18,204.16 C1435.98,181.64 1476.15,149.97 1518,136.8 C1614.82,106.33 2330,136.27 2431.5,136.24 C2460.39,136.23 2469.31,126.48 2496.5,136.24 C2533.89,149.66 2563.7003,177.0437 2584.2803,199.6437" fill="none" id="CU24-to-CU20" style="stroke:#181818;stroke-width:1;stroke-dasharray:7,7;"/><polygon fill="#181818" points="2588.32,204.08,2585.2179,194.7324,2584.9535,200.3831,2579.3029,200.1188,2588.32,204.08" style="stroke:#181818;stroke-width:1;"/><text fill="#000000" font-family="sans-serif" font-size="13" lengthAdjust="spacing" textLength="63.0068" x="2432.5" y="124.8669">&#171;include&#187;</text></g><!--link CU28 to CU25--><g class="link" data-entity-1="CU28" data-entity-2="CU25" data-source-line="75" data-uid="lnk57" id="link_CU28_CU25"><path d="M885.58,228.92 C917.71,228.92 946.23,228.92 978.36,228.92" fill="none" id="CU28-to-CU25" style="stroke:#181818;stroke-width:1;stroke-dasharray:7,7;"/><polygon fill="#181818" points="984.36,228.92,975.36,224.92,979.36,228.92,975.36,232.92,984.36,228.92" style="stroke:#181818;stroke-width:1;"/><text fill="#000000" font-family="sans-serif" font-size="13" lengthAdjust="spacing" textLength="63.0068" x="903.42" y="221.9869">&#171;include&#187;</text></g><!--link CU40 to CU25--><g class="link" data-entity-1="CU40" data-entity-2="CU25" data-source-line="77" data-uid="lnk58" id="link_CU40_CU25"><path d="M5109.46,207.09 C5083.31,184.45 5038.71,150.5 4993,136.8 C4835.42,89.58 3677,136.27 3512.5,136.24 C3387.08,136.21 1375.37,101.58 1255,136.8 C1211.85,149.43 1173.9975,175.5875 1146.4775,197.9375" fill="none" id="CU40-to-CU25" style="stroke:#181818;stroke-width:1;stroke-dasharray:7,7;"/><polygon fill="#181818" points="1141.82,201.72,1151.328,199.1512,1145.7013,198.5679,1146.2846,192.9412,1141.82,201.72" style="stroke:#181818;stroke-width:1;"/><text fill="#000000" font-family="sans-serif" font-size="13" lengthAdjust="spacing" textLength="63.0068" x="3448.5" y="124.8669">&#171;include&#187;</text></g><!--link CU43 to CU25--><g class="link" data-entity-1="CU43" data-entity-2="CU25" data-source-line="78" data-uid="lnk59" id="link_CU43_CU25"><path d="M5348.46,206.74 C5326.94,184.17 5290.06,150.59 5250,136.8 C5090.91,82.04 2389.75,136.19 2221.5,136.24 C2114.11,136.27 1358.06,106.62 1255,136.8 C1211.85,149.44 1173.9983,175.5985 1146.4783,197.9385" fill="none" id="CU43-to-CU25" style="stroke:#181818;stroke-width:1;stroke-dasharray:7,7;"/><polygon fill="#181818" points="1141.82,201.72,1151.3285,199.1533,1145.702,198.5687,1146.2865,192.9422,1141.82,201.72" style="stroke:#181818;stroke-width:1;"/><text fill="#000000" font-family="sans-serif" font-size="13" lengthAdjust="spacing" textLength="63.0068" x="2222.5" y="124.8669">&#171;include&#187;</text></g><!--link CU46 to CU25--><g class="link" data-entity-1="CU46" data-entity-2="CU25" data-source-line="79" data-uid="lnk60" id="link_CU46_CU25"><path d="M4610.87,204.54 C4581.84,181.96 4534.95,149.95 4488,136.8 C4381.54,106.98 4101.06,136.23 3990.5,136.24 C3838.53,136.25 1400.86,94.12 1255,136.8 C1211.85,149.43 1173.9983,175.5885 1146.4783,197.9285" fill="none" id="CU46-to-CU25" style="stroke:#181818;stroke-width:1;stroke-dasharray:7,7;"/><polygon fill="#181818" points="1141.82,201.71,1151.3285,199.1433,1145.702,198.5587,1146.2865,192.9322,1141.82,201.71" style="stroke:#181818;stroke-width:1;"/><text fill="#000000" font-family="sans-serif" font-size="13" lengthAdjust="spacing" textLength="63.0068" x="3991.5" y="124.8669">&#171;include&#187;</text></g><!--link CU41 to CU38--><g class="link" data-entity-1="CU41" data-entity-2="CU38" data-source-line="81" data-uid="lnk61" id="link_CU41_CU38"><path d="M6164.78,203.63 C6186.05,181.05 6220.66,149.54 6258.5,136.24 C6283.89,127.31 6403.28,116.3 6479,136.8 C6532.74,151.35 6582.3334,185.2028 6611.4934,207.6228" fill="none" id="CU41-to-CU38" style="stroke:#181818;stroke-width:1;stroke-dasharray:7,7;"/><polygon fill="#181818" points="6616.25,211.28,6611.5532,202.6232,6612.2862,208.2324,6606.677,208.9653,6616.25,211.28" style="stroke:#181818;stroke-width:1;"/><text fill="#000000" font-family="sans-serif" font-size="13" lengthAdjust="spacing" textLength="63.0068" x="6259.5" y="124.8669">&#171;include&#187;</text></g><!--link CU44 to CU42--><g class="link" data-entity-1="CU44" data-entity-2="CU42" data-source-line="82" data-uid="lnk62" id="link_CU44_CU42"><path d="M5736.62,228.92 C5770.13,228.92 5799.83,228.92 5830.36,228.92" fill="none" id="CU44-to-CU42" style="stroke:#181818;stroke-width:1;stroke-dasharray:7,7;"/><polygon fill="#181818" points="5836.36,228.92,5827.36,224.92,5831.36,228.92,5827.36,232.92,5836.36,228.92" style="stroke:#181818;stroke-width:1;"/><text fill="#000000" font-family="sans-serif" font-size="13" lengthAdjust="spacing" textLength="63.0068" x="5755" y="221.9869">&#171;include&#187;</text></g><!--link CU34 to CU32--><g class="link" data-entity-1="CU34" data-entity-2="CU32" data-source-line="83" data-uid="lnk63" id="link_CU34_CU32"><path d="M3640.05,228.92 C3671.06,228.92 3700.41,228.92 3733.35,228.92" fill="none" id="CU34-to-CU32" style="stroke:#181818;stroke-width:1;stroke-dasharray:7,7;"/><polygon fill="#181818" points="3739.35,228.92,3730.35,224.92,3734.35,228.92,3730.35,232.92,3739.35,228.92" style="stroke:#181818;stroke-width:1;"/><text fill="#000000" font-family="sans-serif" font-size="13" lengthAdjust="spacing" textLength="63.0068" x="3658.28" y="221.9869">&#171;include&#187;</text></g><!--link CU36 to CU34--><g class="link" data-entity-1="CU36" data-entity-2="CU34" data-source-line="84" data-uid="lnk64" id="link_CU36_CU34"><path d="M3364.57,228.92 C3397.57,228.92 3426.77,228.92 3457.65,228.92" fill="none" id="CU36-to-CU34" style="stroke:#181818;stroke-width:1;stroke-dasharray:7,7;"/><polygon fill="#181818" points="3463.65,228.92,3454.65,224.92,3458.65,228.92,3454.65,232.92,3463.65,228.92" style="stroke:#181818;stroke-width:1;"/><text fill="#000000" font-family="sans-serif" font-size="13" lengthAdjust="spacing" textLength="63.0068" x="3382.8" y="221.9869">&#171;include&#187;</text></g><!--link CU37 to CU36--><g class="link" data-entity-1="CU37" data-entity-2="CU36" data-source-line="85" data-uid="lnk65" id="link_CU37_CU36"><path d="M3025.83,228.92 C3058.16,228.92 3086.95,228.92 3119.08,228.92" fill="none" id="CU37-to-CU36" style="stroke:#181818;stroke-width:1;stroke-dasharray:7,7;"/><polygon fill="#181818" points="3125.08,228.92,3116.08,224.92,3120.08,228.92,3116.08,232.92,3125.08,228.92" style="stroke:#181818;stroke-width:1;"/><text fill="#000000" font-family="sans-serif" font-size="13" lengthAdjust="spacing" textLength="63.0068" x="3044.03" y="221.9869">&#171;include&#187;</text></g><!--link CU39 to CU38--><g class="link" data-entity-1="CU39" data-entity-2="CU38" data-source-line="86" data-uid="lnk66" id="link_CU39_CU38"><path d="M6461.7,228.92 C6493.32,228.92 6523.14,228.92 6554.2,228.92" fill="none" id="CU39-to-CU38" style="stroke:#181818;stroke-width:1;stroke-dasharray:7,7;"/><polygon fill="#181818" points="6560.2,228.92,6551.2,224.92,6555.2,228.92,6551.2,232.92,6560.2,228.92" style="stroke:#181818;stroke-width:1;"/><text fill="#000000" font-family="sans-serif" font-size="13" lengthAdjust="spacing" textLength="63.0068" x="6479.56" y="221.9869">&#171;include&#187;</text></g><!--SRC=[ZLLBRjim4Dth58DiiehXc9Ii2Ac1r4xh06qTo77sZCGQR6NA8AMY7_GKFK7Fq2FaOXqgeY9HKX0RNipCUyF7-T2dyEQL7-yKFZx-MUq-R2A8hvUxUBlPmdhtyUhJPeknLwVnM5Ba2avYdfHAvnhMvO79N9y0qn37wtKDk4eFGWfTA9RcglOjSrbKfdTaoLUsvt3odkj2FFwJa7AuK-o1VJ40Zkb-UG2bvWdJ25lkPjC8beep1KUkFeiCYWPT7MqG3kCyWXkvnsH8Ibc1Ml6G13KeD2pft27DUgIZuj-45hba6TUMDdDe989j-I2GaoVbWSkAoB507HPnM3I2wrGKBrsAEXG_WhUbJf3oZ8KZ_kBTdUNu3YSOuw1htrGYS5ZpCPRC3m-AMzhSeOKHt0jTiapyVEbUeVTxP0oMTOVwCq1cpGnaJ1OYovZRJ-8qXf2kd56Uqnf2xL4kq6a8yHjWzlYtr6N6BD9f0maiaad-FHyOHkAqW60Bhd0Mzmsdhti-MiVhoIr-uGTi9gl9pQHVpT3ggP0sOUYWBb235dlfuYwwE3gr6t2xUjSSNuEfiveKLtF5pMoPgmqHdBMaJUUhorYKqsnA70qTiDDXIWSqT0XqjBItN1s47fXGYjEmpJEHsAKsC9lFcGSQMBKr3bXMxujb14P1YpAjNYVCZiarrqPE3PtEEZYyspsEV5hDhrAycZOSJgQ4bJEb7hxxCSzOWcyRrsQoe7gdkVRCGmvdPukdPxLj-MqBbw5jXMqBczEsVA_pZ_2SVD0zZCRZ1jtXe1i53Bfzp_uFFP_cUeAUPzxpXAP-AtxaCkKIMs8gU2Ynafwv5qmMLLiWWijB8PEiJFbYqGvH9-Hc4xBWIh8gtVaJ1xczTBFn41aFqV5GM8TyLv_Puv6OMQ_nKF12nlfc9EpJQesqNqDIXyX0g3wCq7veNeU2VkXYMCP_]--></g></svg>