<svg xmlns="http://www.w3.org/2000/svg" xmlns:xlink="http://www.w3.org/1999/xlink" contentStyleType="text/css" data-diagram-type="DESCRIPTION" height="278px" preserveAspectRatio="none" style="width:1390px;height:278px;background:#FFFFFF;" version="1.1" viewBox="0 0 1390 278" width="1390px" zoomAndPan="magnify"><defs/><g><!--cluster Gesti?n de Usuarios Autorizados--><g class="cluster" data-entity="Gesti.n de Usuarios Autorizados" data-source-line="7" data-uid="ent0003" id="cluster_Gesti.n de Usuarios Autorizados"><path d="M8.5,144.8 L267.1875,144.8 A3.75,3.75 0 0 1 269.6875,147.3 L276.6875,167.0969 L851.5,167.0969 A2.5,2.5 0 0 1 854,169.5969 L854,268.92 A2.5,2.5 0 0 1 851.5,271.42 L8.5,271.42 A2.5,2.5 0 0 1 6,268.92 L6,147.3 A2.5,2.5 0 0 1 8.5,144.8" fill="none" style="stroke:#000000;stroke-width:1.5;"/><line style="stroke:#000000;stroke-width:1.5;" x1="6" x2="276.6875" y1="167.0969" y2="167.0969"/><text fill="#000000" font-family="sans-serif" font-size="14" font-weight="bold" lengthAdjust="spacing" textLength="257.6875" x="10" y="159.7951">Gesti&#243;n de Usuarios Autorizados</text></g><!--entity CU05--><g class="entity" data-entity="CU05" data-source-line="8" data-uid="ent0004" id="entity_CU05"><ellipse cx="143.0026" cy="227.1105" fill="#F1F1F1" rx="120.6526" ry="26.5305" style="stroke:#181818;stroke-width:0.5;"/><text fill="#000000" font-family="sans-serif" font-size="14" lengthAdjust="spacing" textLength="220.7461" x="32.6296" y="231.759">CU05: Crear usuario autorizado</text></g><!--entity CU06--><g class="entity" data-entity="CU06" data-source-line="9" data-uid="ent0005" id="entity_CU06"><ellipse cx="420.9953" cy="227.1091" fill="#F1F1F1" rx="122.0453" ry="26.8091" style="stroke:#181818;stroke-width:0.5;"/><text fill="#000000" font-family="sans-serif" font-size="14" lengthAdjust="spacing" textLength="223.7129" x="309.1389" y="231.7575">CU06: Editar usuario autorizado</text></g><!--entity CU07--><g class="entity" data-entity="CU07" data-source-line="10" data-uid="ent0006" id="entity_CU07"><ellipse cx="708.0012" cy="227.1102" fill="#F1F1F1" rx="129.5512" ry="28.3102" style="stroke:#181818;stroke-width:0.5;"/><text fill="#000000" font-family="sans-serif" font-size="14" lengthAdjust="spacing" textLength="239.627" x="588.1877" y="231.7587">CU07: Eliminar usuario autorizado</text></g><!--entity Administrador--><g class="entity" data-entity="Administrador" data-source-line="5" data-uid="ent0002" id="entity_Administrador"><ellipse cx="421" cy="14" fill="#F1F1F1" rx="8" ry="8" style="stroke:#181818;stroke-width:0.5;"/><path d="M421,22 L421,49 M408,30 L434,30 M421,49 L408,64 M421,49 L434,64" fill="none" style="stroke:#181818;stroke-width:0.5;"/><text fill="#000000" font-family="sans-serif" font-size="14" lengthAdjust="spacing" textLength="99.0801" x="371.46" y="78.4951">Administrador</text></g><!--entity CU02--><g class="entity" data-entity="CU02" data-source-line="13" data-uid="ent0007" id="entity_CU02"><ellipse cx="1021.004" cy="227.1148" fill="#F1F1F1" rx="83.474" ry="19.0948" style="stroke:#181818;stroke-width:0.5;"/><text fill="#000000" font-family="sans-serif" font-size="14" lengthAdjust="spacing" textLength="138.7969" x="951.6056" y="231.7632">CU02: Iniciar sesi&#243;n</text></g><!--entity CU04--><g class="entity" data-entity="CU04" data-source-line="14" data-uid="ent0008" id="entity_CU04"><ellipse cx="1262.0039" cy="227.1068" fill="#F1F1F1" rx="122.0839" ry="26.8168" style="stroke:#181818;stroke-width:0.5;"/><text fill="#000000" font-family="sans-serif" font-size="14" lengthAdjust="spacing" textLength="223.7949" x="1150.1064" y="231.7552">CU04: Validar correo de usuario</text></g><!--link Administrador to CU05--><g class="link" data-entity-1="Administrador" data-entity-2="CU05" data-source-line="16" data-uid="lnk9" id="link_Administrador_CU05"><path d="M370.98,77.3 C316.26,113.01 234.8443,166.1602 185.6243,198.2902" fill="none" id="Administrador-to-CU05" style="stroke:#181818;stroke-width:1;"/><polygon fill="#181818" points="180.6,201.57,190.3229,199.9999,184.7869,198.8369,185.9499,193.3009,180.6,201.57" style="stroke:#181818;stroke-width:1;"/></g><!--link Administrador to CU06--><g class="link" data-entity-1="Administrador" data-entity-2="CU06" data-source-line="17" data-uid="lnk10" id="link_Administrador_CU06"><path d="M421,82.25 C421,117.44 421,163.1 421,193.99" fill="none" id="Administrador-to-CU06" style="stroke:#181818;stroke-width:1;"/><polygon fill="#181818" points="421,199.99,425,190.99,421,194.99,417,190.99,421,199.99" style="stroke:#181818;stroke-width:1;"/></g><!--link Administrador to CU07--><g class="link" data-entity-1="Administrador" data-entity-2="CU07" data-source-line="18" data-uid="lnk11" id="link_Administrador_CU07"><path d="M451.5,81.97 C467.44,98.96 488.33,117.7 511,128.8 C531.21,138.69 539.88,129.03 561,136.8 C602.2,151.95 639.6661,175.6647 668.2661,196.0747" fill="none" id="Administrador-to-CU07" style="stroke:#181818;stroke-width:1;"/><polygon fill="#181818" points="673.15,199.56,668.1477,191.0761,669.0801,196.6556,663.5006,197.5879,673.15,199.56" style="stroke:#181818;stroke-width:1;"/></g><!--link CU05 to CU02--><g class="link" data-entity-1="CU05" data-entity-2="CU02" data-source-line="20" data-uid="lnk12" id="link_CU05_CU02"><path d="M171.92,200.92 C198.21,179 239.18,149.35 281,136.8 C341.98,118.5 792.3,121.08 854,136.8 C908.62,150.71 959.8804,182.8768 991.1604,204.9868" fill="none" id="CU05-to-CU02" style="stroke:#181818;stroke-width:1;stroke-dasharray:7,7;"/><polygon fill="#181818" points="996.06,208.45,991.0194,199.9888,991.977,205.564,986.4018,206.5215,996.06,208.45" style="stroke:#181818;stroke-width:1;"/><text fill="#000000" font-family="sans-serif" font-size="13" lengthAdjust="spacing" textLength="63.0068" x="519.5" y="124.8669">&#171;include&#187;</text></g><!--link CU05 to CU04--><g class="link" data-entity-1="CU05" data-entity-2="CU04" data-source-line="21" data-uid="lnk13" id="link_CU05_CU04"><path d="M171.92,200.9 C198.2,178.97 239.17,149.32 281,136.8 C370.52,110 1032.39,110.29 1122,136.8 C1164.16,149.27 1200.9704,174.9656 1227.6904,196.8756" fill="none" id="CU05-to-CU04" style="stroke:#181818;stroke-width:1;stroke-dasharray:7,7;"/><polygon fill="#181818" points="1232.33,200.68,1227.9068,191.8803,1228.4636,197.5096,1222.8342,198.0664,1232.33,200.68" style="stroke:#181818;stroke-width:1;"/><text fill="#000000" font-family="sans-serif" font-size="13" lengthAdjust="spacing" textLength="63.0068" x="678.5" y="124.8669">&#171;include&#187;</text></g><!--link CU06 to CU02--><g class="link" data-entity-1="CU06" data-entity-2="CU02" data-source-line="22" data-uid="lnk14" id="link_CU06_CU02"><path d="M450.67,200.69 C477.39,178.78 518.84,149.28 561,136.8 C640.16,113.36 856.47,103.77 932.5,135.93 C967.04,150.54 991.4096,180.9625 1006.1196,203.1025" fill="none" id="CU06-to-CU02" style="stroke:#181818;stroke-width:1;stroke-dasharray:7,7;"/><polygon fill="#181818" points="1009.44,208.1,1007.7911,198.3902,1006.673,203.9354,1001.1278,202.8173,1009.44,208.1" style="stroke:#181818;stroke-width:1;"/><text fill="#000000" font-family="sans-serif" font-size="13" lengthAdjust="spacing" textLength="63.0068" x="868.5" y="124.8669">&#171;include&#187;</text></g><!--link CU06 to CU04--><g class="link" data-entity-1="CU06" data-entity-2="CU04" data-source-line="23" data-uid="lnk15" id="link_CU06_CU04"><path d="M450.68,200.7 C477.4,178.81 518.86,149.32 561,136.8 C633.02,115.41 1114.13,134.47 1122,136.8 C1164.16,149.28 1200.9704,174.9756 1227.6904,196.8856" fill="none" id="CU06-to-CU04" style="stroke:#181818;stroke-width:1;stroke-dasharray:7,7;"/><polygon fill="#181818" points="1232.33,200.69,1227.9068,191.8903,1228.4636,197.5196,1222.8342,198.0764,1232.33,200.69" style="stroke:#181818;stroke-width:1;"/><text fill="#000000" font-family="sans-serif" font-size="13" lengthAdjust="spacing" textLength="63.0068" x="754.5" y="124.8669">&#171;include&#187;</text></g><!--link CU07 to CU02--><g class="link" data-entity-1="CU07" data-entity-2="CU02" data-source-line="24" data-uid="lnk16" id="link_CU07_CU02"><path d="M838.02,227.11 C871.61,227.11 900.88,227.11 931.39,227.11" fill="none" id="CU07-to-CU02" style="stroke:#181818;stroke-width:1;stroke-dasharray:7,7;"/><polygon fill="#181818" points="937.39,227.11,928.39,223.11,932.39,227.11,928.39,231.11,937.39,227.11" style="stroke:#181818;stroke-width:1;"/><text fill="#000000" font-family="sans-serif" font-size="13" lengthAdjust="spacing" textLength="63.0068" x="856.04" y="220.1769">&#171;include&#187;</text></g><!--SRC=[ZP3VIiCm58VlprFywCsk9b9g2s4MoYPIK0ghySAxa0G9raQIzaRnANmK7s4lPZgTx4ytbhkSt_Vbv9m9hiyyDC7zwcl1xoe6NlDYMLOr2lvGBSkdOb7L8J_xAHAoimw5UZMjyPqJoZgYDo5VnBD6TAjzPrRVBPG6zxrmndeKVL3CUq1zX0y2Ug-by06VyyihXhdJmeNY6eVufoC8Zm7PKrA66sMwaqwwvsJ1QKpuz4aheq-YRIrcA5iZJR2yziDa6pJUuHA6Hz4O5JXfdTDsMC1VdusH4Esi3TDf_ZlUQ3aTBsT4WuEBzIq6msncMjdqIkVvTfGSHkbnAprkPUFM3m00]--></g></svg>